<control>


default_path=Strings\Violin Section\Spic\


<global>




ampeg_attack=0.001


ampeg_release=4


ampeg_dynamic=1




volume=0




<group> //Begin Group 1




seq_length=2


seq_position=1


group_label=gr_1






<region>
sample=VlnEns_Spic_A2_v1_rr1.wav
lokey=56
hikey=57
pitch_keycenter=57
lovel=0
hivel=62
volume=17


<region>
sample=VlnEns_Spic_A3_v1_rr1.wav
lokey=68
hikey=70
pitch_keycenter=69
lovel=0
hivel=62
volume=17


<region>
sample=VlnEns_Spic_B2_v1_rr1.wav
lokey=58
hikey=60
pitch_keycenter=59
lovel=0
hivel=62
volume=17


<region>
sample=VlnEns_Spic_B4_v1_rr1.wav
lokey=81
hikey=84
pitch_keycenter=83
lovel=0
hivel=62
volume=17


<region>
sample=VlnEns_Spic_C4_v1_rr1.wav
lokey=71
hikey=73
pitch_keycenter=72
lovel=0
hivel=62
volume=17


<region>
sample=VlnEns_Spic_D3_v1_rr1.wav
lokey=61
hikey=63
pitch_keycenter=62
lovel=0
hivel=62
volume=17


<region>
sample=VlnEns_Spic_D5_v1_rr1.wav
lokey=85
hikey=86
pitch_keycenter=86
lovel=0
hivel=62
volume=17


<region>
sample=VlnEns_Spic_E4_v1_rr1.wav
lokey=74
hikey=77
pitch_keycenter=76
lovel=0
hivel=62
volume=17


<region>
sample=VlnEns_Spic_F#3_v1_rr1.wav
lokey=64
hikey=67
pitch_keycenter=66
lovel=0
hivel=62
volume=17


<region>
sample=VlnEns_Spic_G2_v1_rr1.wav
lokey=55
hikey=55
pitch_keycenter=55
lovel=0
hivel=62
volume=17


<region>
sample=VlnEns_Spic_G4_v1_rr1.wav
lokey=78
hikey=80
pitch_keycenter=79
lovel=0
hivel=62
volume=17


<region>
sample=VlnEns_Spic_A2_v2_rr1.wav
lokey=56
hikey=57
pitch_keycenter=57
lovel=63
hivel=127
volume=6


<region>
sample=VlnEns_Spic_A3_v2_rr1.wav
lokey=68
hikey=70
pitch_keycenter=69
lovel=63
hivel=127
volume=6


<region>
sample=VlnEns_Spic_B2_v2_rr1.wav
lokey=58
hikey=60
pitch_keycenter=59
lovel=63
hivel=127
volume=6


<region>
sample=VlnEns_Spic_B4_v2_rr1.wav
lokey=81
hikey=84
pitch_keycenter=83
lovel=63
hivel=127
volume=6


<region>
sample=VlnEns_Spic_C4_v2_rr1.wav
lokey=71
hikey=73
pitch_keycenter=72
lovel=63
hivel=127
volume=6


<region>
sample=VlnEns_Spic_D3_v2_rr1.wav
lokey=61
hikey=63
pitch_keycenter=62
lovel=63
hivel=127
volume=6


<region>
sample=VlnEns_Spic_D5_v2_rr1.wav
lokey=85
hikey=86
pitch_keycenter=86
lovel=63
hivel=127
volume=6


<region>
sample=VlnEns_Spic_E4_v2_rr1.wav
lokey=74
hikey=77
pitch_keycenter=76
lovel=63
hivel=127
volume=6


<region>
sample=VlnEns_Spic_F#3_v2_rr1.wav
lokey=64
hikey=67
pitch_keycenter=66
lovel=63
hivel=127
volume=6


<region>
sample=VlnEns_Spic_G2_v2_rr1.wav
lokey=55
hikey=55
pitch_keycenter=55
lovel=63
hivel=127
volume=6


<region>
sample=VlnEns_Spic_G4_v2_rr1.wav
lokey=78
hikey=80
pitch_keycenter=79
lovel=63
hivel=127
volume=6


<group> //Begin Group 2




seq_length=2


seq_position=2


group_label=gr_2






<region>
sample=VlnEns_Spic_A2_v1_rr2.wav
lokey=56
hikey=57
pitch_keycenter=57
lovel=0
hivel=62
volume=17


<region>
sample=VlnEns_Spic_A3_v1_rr2.wav
lokey=68
hikey=70
pitch_keycenter=69
lovel=0
hivel=62
volume=17


<region>
sample=VlnEns_Spic_B2_v1_rr2.wav
lokey=58
hikey=60
pitch_keycenter=59
lovel=0
hivel=62
volume=17


<region>
sample=VlnEns_Spic_B4_v1_rr2.wav
lokey=81
hikey=84
pitch_keycenter=83
lovel=0
hivel=62
volume=17


<region>
sample=VlnEns_Spic_C4_v1_rr2.wav
lokey=71
hikey=73
pitch_keycenter=72
lovel=0
hivel=62
volume=17


<region>
sample=VlnEns_Spic_D3_v1_rr2.wav
lokey=61
hikey=63
pitch_keycenter=62
lovel=0
hivel=62
volume=17


<region>
sample=VlnEns_Spic_D5_v1_rr2.wav
lokey=85
hikey=86
pitch_keycenter=86
lovel=0
hivel=62
volume=17


<region>
sample=VlnEns_Spic_E4_v1_rr2.wav
lokey=74
hikey=77
pitch_keycenter=76
lovel=0
hivel=62
volume=17


<region>
sample=VlnEns_Spic_F#3_v1_rr2.wav
lokey=64
hikey=67
pitch_keycenter=66
lovel=0
hivel=62
volume=17


<region>
sample=VlnEns_Spic_G2_v1_rr2.wav
lokey=55
hikey=55
pitch_keycenter=55
lovel=0
hivel=62
volume=17


<region>
sample=VlnEns_Spic_G4_v1_rr2.wav
lokey=78
hikey=80
pitch_keycenter=79
lovel=0
hivel=62
volume=17


<region>
sample=VlnEns_Spic_A2_v2_rr2.wav
lokey=56
hikey=57
pitch_keycenter=57
lovel=63
hivel=127
volume=6


<region>
sample=VlnEns_Spic_A3_v2_rr2.wav
lokey=68
hikey=70
pitch_keycenter=69
lovel=63
hivel=127
volume=6


<region>
sample=VlnEns_Spic_B2_v2_rr2.wav
lokey=58
hikey=60
pitch_keycenter=59
lovel=63
hivel=127
volume=6


<region>
sample=VlnEns_Spic_B4_v2_rr2.wav
lokey=81
hikey=84
pitch_keycenter=83
lovel=63
hivel=127
volume=6


<region>
sample=VlnEns_Spic_C4_v2_rr2.wav
lokey=71
hikey=73
pitch_keycenter=72
lovel=63
hivel=127
volume=6


<region>
sample=VlnEns_Spic_D3_v2_rr2.wav
lokey=61
hikey=63
pitch_keycenter=62
lovel=63
hivel=127
volume=6


<region>
sample=VlnEns_Spic_D5_v2_rr2.wav
lokey=85
hikey=86
pitch_keycenter=86
lovel=63
hivel=127
volume=6


<region>
sample=VlnEns_Spic_E4_v2_rr2.wav
lokey=74
hikey=77
pitch_keycenter=76
lovel=63
hivel=127
volume=6


<region>
sample=VlnEns_Spic_F#3_v2_rr2.wav
lokey=64
hikey=67
pitch_keycenter=66
lovel=63
hivel=127
volume=6


<region>
sample=VlnEns_Spic_G2_v2_rr2.wav
lokey=55
hikey=55
pitch_keycenter=55
lovel=63
hivel=127
volume=6


<region>
sample=VlnEns_Spic_G4_v2_rr2.wav
lokey=78
hikey=80
pitch_keycenter=79
lovel=63
hivel=127
volume=6


